<svg xmlns="http://www.w3.org/2000/svg" version="1.1" xmlns:xlink="http://www.w3.org/1999/xlink" xmlns:svgjs="http://svgjs.dev/svgjs" width="1920" height="1080" viewBox="0 0 1920 1080"><rect width="1920" height="1080" fill="#cf5260"></rect><g transform="matrix(0.75,0,0,0.75,249.09091707672474,282.7536437246963)"><svg viewBox="0 0 396 247" data-background-color="#cf5260" preserveAspectRatio="xMidYMid meet" height="1080" width="1920" xmlns="http://www.w3.org/2000/svg" xmlns:xlink="http://www.w3.org/1999/xlink"><defs></defs><g id="tight-bounds" transform="matrix(1,0,0,1,0.2400005701211967,-0.09999999999999432)"><svg viewBox="0 0 395.52 247.2" height="247.2" width="395.52"><g><svg></svg></g><g><svg viewBox="0 0 395.52 247.2" height="247.2" width="395.52"><g><path d="M120.951 247.2c-2.354 0-4.355-0.824-6.003-2.472-1.648-1.648-2.472-3.649-2.472-6.003l0-52.832 48.381 0v52.832c0 2.354-0.824 4.355-2.472 6.003-1.648 1.648-3.767 2.472-6.357 2.472zM112.476 8.829c0-2.59 0.824-4.709 2.472-6.357 1.648-1.648 3.649-2.472 6.003-2.472h153.264c2.59 0 4.709 0.824 6.357 2.472 1.648 1.648 2.472 3.767 2.472 6.357v24.72c0 2.59-0.824 4.638-2.472 6.144-1.648 1.554-3.767 2.331-6.357 2.331h-113.358l0 19.283-48.381 0z" fill="#f0f0f0" data-fill-palette-color="tertiary"></path></g><g transform="matrix(1,0,0,1,0,70.99948481376045)"><svg viewBox="0 0 395.52 105.2010303724791" height="105.2010303724791" width="395.52"><g><svg viewBox="0 0 395.52 105.2010303724791" height="105.2010303724791" width="395.52"><g><svg viewBox="0 0 538.2330262906939 143.16006509475787" height="105.2010303724791" width="395.52"><g transform="matrix(1,0,0,1,142.71302629069396,19.78550827286452)"><svg viewBox="0 0 395.52 103.58904854902883" height="103.58904854902883" width="395.52"><g><svg viewBox="0 0 395.52 103.58904854902883" height="103.58904854902883" width="395.52"><g><svg viewBox="0 0 395.52 55.870982931135956" height="55.870982931135956" width="395.52"><g transform="matrix(1,0,0,1,0,0)"><svg width="395.52" viewBox="3.9000000953674316 -35.5 254.83001708984375 36" height="55.870982931135956" data-palette-color="#f0f0f0"><path d="M9.5 0L5.1 0Q4.6 0 4.25-0.35 3.9-0.7 3.9-1.2L3.9-1.2 3.9-33.75Q3.9-34.3 4.25-34.65 4.6-35 5.1-35L5.1-35 26.8-35Q27.35-35 27.7-34.65 28.05-34.3 28.05-33.75L28.05-33.75 28.05-30.25Q28.05-29.7 27.7-29.38 27.35-29.05 26.8-29.05L26.8-29.05 10.75-29.05 10.75-19.55 25.8-19.55Q26.35-19.55 26.7-19.2 27.05-18.85 27.05-18.3L27.05-18.3 27.05-14.8Q27.05-14.3 26.7-13.95 26.35-13.6 25.8-13.6L25.8-13.6 10.75-13.6 10.75-1.2Q10.75-0.7 10.4-0.35 10.05 0 9.5 0L9.5 0ZM36.15 0L31.8 0Q31.4 0 31.07-0.3 30.75-0.6 30.75-1.05L30.75-1.05Q30.75-1.25 30.85-1.5L30.85-1.5 42.9-33.75Q43.05-34.25 43.47-34.63 43.9-35 44.65-35L44.65-35 50.1-35Q50.85-35 51.25-34.63 51.65-34.25 51.85-33.75L51.85-33.75 63.9-1.5Q63.95-1.25 63.95-1.05L63.95-1.05Q63.95-0.6 63.65-0.3 63.35 0 62.95 0L62.95 0 58.6 0Q57.9 0 57.57-0.33 57.25-0.65 57.15-0.95L57.15-0.95 54.8-7.05 39.95-7.05 37.6-0.95Q37.5-0.65 37.17-0.33 36.85 0 36.15 0L36.15 0ZM47.35-28.25L41.7-12.8 53.05-12.8 47.35-28.25ZM74.19 0L69.79 0Q69.29 0 68.94-0.35 68.59-0.7 68.59-1.2L68.59-1.2 68.59-33.75Q68.59-34.3 68.94-34.65 69.29-35 69.79-35L69.79-35 74.19-35Q74.74-35 75.09-34.65 75.44-34.3 75.44-33.75L75.44-33.75 75.44-22.05 86.74-34.1Q86.94-34.35 87.42-34.68 87.89-35 88.69-35L88.69-35 93.64-35Q94.04-35 94.37-34.7 94.69-34.4 94.69-33.95L94.69-33.95Q94.69-33.6 94.49-33.35L94.49-33.35 80.74-18.25 95.44-1.7Q95.69-1.4 95.69-1.05L95.69-1.05Q95.69-0.6 95.37-0.3 95.04 0 94.64 0L94.64 0 89.49 0Q88.64 0 88.17-0.38 87.69-0.75 87.54-0.9L87.54-0.9 75.44-14.15 75.44-1.2Q75.44-0.7 75.09-0.35 74.74 0 74.19 0L74.19 0ZM123.79 0L101.39 0Q100.89 0 100.54-0.35 100.19-0.7 100.19-1.2L100.19-1.2 100.19-33.75Q100.19-34.3 100.54-34.65 100.89-35 101.39-35L101.39-35 123.39-35Q123.94-35 124.29-34.65 124.64-34.3 124.64-33.75L124.64-33.75 124.64-30.45Q124.64-29.95 124.29-29.6 123.94-29.25 123.39-29.25L123.39-29.25 106.94-29.25 106.94-20.4 122.29-20.4Q122.84-20.4 123.19-20.08 123.54-19.75 123.54-19.2L123.54-19.2 123.54-16.1Q123.54-15.55 123.19-15.23 122.84-14.9 122.29-14.9L122.29-14.9 106.94-14.9 106.94-5.75 123.79-5.75Q124.34-5.75 124.69-5.4 125.04-5.05 125.04-4.5L125.04-4.5 125.04-1.2Q125.04-0.7 124.69-0.35 124.34 0 123.79 0L123.79 0ZM137.24 0L132.49 0Q131.99 0 131.64-0.35 131.29-0.7 131.29-1.2L131.29-1.2 131.29-33.75Q131.29-34.3 131.64-34.65 131.99-35 132.49-35L132.49-35 145.89-35Q149.79-35 152.69-33.77 155.59-32.55 157.19-30.08 158.79-27.6 158.79-23.9L158.79-23.9Q158.79-20.15 157.19-17.73 155.59-15.3 152.69-14.1 149.79-12.9 145.89-12.9L145.89-12.9 138.44-12.9 138.44-1.2Q138.44-0.7 138.11-0.35 137.79 0 137.24 0L137.24 0ZM138.34-29.45L138.34-18.45 145.64-18.45Q148.54-18.45 150.09-19.83 151.64-21.2 151.64-23.9L151.64-23.9Q151.64-26.4 150.19-27.93 148.74-29.45 145.64-29.45L145.64-29.45 138.34-29.45ZM166.44 0L162.09 0Q161.69 0 161.36-0.3 161.04-0.6 161.04-1.05L161.04-1.05Q161.04-1.25 161.14-1.5L161.14-1.5 173.19-33.75Q173.34-34.25 173.76-34.63 174.19-35 174.94-35L174.94-35 180.39-35Q181.14-35 181.54-34.63 181.94-34.25 182.14-33.75L182.14-33.75 194.19-1.5Q194.24-1.25 194.24-1.05L194.24-1.05Q194.24-0.6 193.94-0.3 193.64 0 193.24 0L193.24 0 188.89 0Q188.19 0 187.86-0.33 187.54-0.65 187.44-0.95L187.44-0.95 185.09-7.05 170.24-7.05 167.89-0.95Q167.79-0.65 167.46-0.33 167.14 0 166.44 0L166.44 0ZM177.64-28.25L171.99-12.8 183.34-12.8 177.64-28.25ZM212.48 0.5L212.48 0.5Q207.88 0.5 204.66-1.1 201.43-2.7 199.66-5.73 197.88-8.75 197.73-12.95L197.73-12.95Q197.68-15.1 197.68-17.57 197.68-20.05 197.73-22.25L197.73-22.25Q197.88-26.4 199.66-29.35 201.43-32.3 204.71-33.9 207.98-35.5 212.48-35.5L212.48-35.5Q216.13-35.5 218.88-34.52 221.63-33.55 223.46-32.02 225.28-30.5 226.21-28.75 227.13-27 227.19-25.5L227.19-25.5Q227.23-25.05 226.94-24.75 226.63-24.45 226.13-24.45L226.13-24.45 220.98-24.45Q220.48-24.45 220.23-24.65 219.98-24.85 219.78-25.25L219.78-25.25Q219.38-26.3 218.53-27.33 217.69-28.35 216.23-29.05 214.78-29.75 212.48-29.75L212.48-29.75Q209.08-29.75 207.06-27.95 205.03-26.15 204.88-22L204.88-22Q204.73-17.65 204.88-13.2L204.88-13.2Q205.03-8.95 207.11-7.1 209.18-5.25 212.58-5.25L212.58-5.25Q214.83-5.25 216.61-6.05 218.38-6.85 219.41-8.55 220.44-10.25 220.44-12.9L220.44-12.9 220.44-14.45 214.33-14.45Q213.83-14.45 213.48-14.8 213.13-15.15 213.13-15.7L213.13-15.7 213.13-18.35Q213.13-18.9 213.48-19.25 213.83-19.6 214.33-19.6L214.33-19.6 226.28-19.6Q226.83-19.6 227.16-19.25 227.48-18.9 227.48-18.35L227.48-18.35 227.48-13.1Q227.48-8.9 225.66-5.85 223.83-2.8 220.46-1.15 217.08 0.5 212.48 0.5ZM257.48 0L235.08 0Q234.58 0 234.23-0.35 233.88-0.7 233.88-1.2L233.88-1.2 233.88-33.75Q233.88-34.3 234.23-34.65 234.58-35 235.08-35L235.08-35 257.08-35Q257.63-35 257.98-34.65 258.33-34.3 258.33-33.75L258.33-33.75 258.33-30.45Q258.33-29.95 257.98-29.6 257.63-29.25 257.08-29.25L257.08-29.25 240.63-29.25 240.63-20.4 255.98-20.4Q256.53-20.4 256.88-20.08 257.23-19.75 257.23-19.2L257.23-19.2 257.23-16.1Q257.23-15.55 256.88-15.23 256.53-14.9 255.98-14.9L255.98-14.9 240.63-14.9 240.63-5.75 257.48-5.75Q258.03-5.75 258.38-5.4 258.73-5.05 258.73-4.5L258.73-4.5 258.73-1.2Q258.73-0.7 258.38-0.35 258.03 0 257.48 0L257.48 0Z" opacity="1" transform="matrix(1,0,0,1,0,0)" fill="#f0f0f0" class="undefined-text-0" data-fill-palette-color="primary" id="text-0"></path></svg></g></svg></g><g transform="matrix(1,0,0,1,0,69.06078109758681)"><svg viewBox="0 0 395.52 34.52826745144202" height="34.52826745144202" width="395.52"><g transform="matrix(1,0,0,1,0,0)"><svg width="395.52" viewBox="4.150000095367432 -38.400001525878906 443.30999755859375 38.70000076293945" height="34.52826745144202" data-palette-color="#f0f0f0"><path d="M5.05 0L5.05 0Q4.7 0 4.42-0.23 4.15-0.45 4.15-0.9L4.15-0.9 4.15-35.7Q4.15-36.15 4.42-36.35 4.7-36.55 5.05-36.55L5.05-36.55Q5.4-36.55 5.68-36.35 5.95-36.15 5.95-35.7L5.95-35.7 5.95-0.9Q5.95-0.45 5.68-0.23 5.4 0 5.05 0ZM44.86 0L44.86 0Q44.51 0 44.23-0.23 43.96-0.45 43.96-0.9L43.96-0.9 43.96-34.75 35.06-34.75Q34.66-34.75 34.41-35.02 34.16-35.3 34.16-35.65L34.16-35.65Q34.16-36 34.41-36.27 34.66-36.55 35.06-36.55L35.06-36.55 54.61-36.55Q55.06-36.55 55.28-36.3 55.51-36.05 55.51-35.7L55.51-35.7Q55.51-35.35 55.31-35.05 55.11-34.75 54.61-34.75L54.61-34.75 45.76-34.75 45.76-0.9Q45.76-0.45 45.48-0.23 45.21 0 44.86 0ZM82.91-29.05L82.91-29.05Q82.56-29.05 82.39-29.33 82.21-29.6 82.21-29.95L82.21-29.95 81.71-37.55Q81.71-37.95 82.14-38.18 82.56-38.4 82.91-38.4L82.91-38.4Q83.31-38.4 83.74-38.18 84.16-37.95 84.16-37.55L84.16-37.55 83.66-29.95Q83.66-29.6 83.49-29.33 83.31-29.05 82.91-29.05ZM121.42 0.3L121.42 0.3Q118.22 0.3 116.07-0.68 113.92-1.65 112.84-2.88 111.77-4.1 111.77-4.75L111.77-4.75Q111.77-5 111.92-5.25 112.07-5.5 112.27-5.65 112.47-5.8 112.62-5.8L112.62-5.8Q112.97-5.8 113.42-5.15 113.87-4.5 114.72-3.65 115.57-2.8 117.09-2.15 118.62-1.5 121.17-1.5L121.17-1.5Q123.92-1.5 125.77-2.43 127.62-3.35 128.57-5.15 129.52-6.95 129.52-9.6L129.52-9.6Q129.52-12.35 128.59-14 127.67-15.65 126.17-16.65 124.67-17.65 122.89-18.28 121.12-18.9 119.32-19.5 117.52-20.1 116.02-21.05 114.52-22 113.59-23.63 112.67-25.25 112.67-27.9L112.67-27.9Q112.67-30.6 113.62-32.3 114.57-34 116.07-34.93 117.57-35.85 119.27-36.2 120.97-36.55 122.52-36.55L122.52-36.55Q124.07-36.55 125.47-36.3 126.87-36.05 127.99-35.68 129.12-35.3 129.77-34.85 130.42-34.4 130.42-33.95L130.42-33.95Q130.42-33.75 130.29-33.5 130.17-33.25 129.97-33.05 129.77-32.85 129.52-32.85L129.52-32.85Q129.17-32.85 128.37-33.33 127.57-33.8 126.14-34.27 124.72-34.75 122.47-34.75L122.47-34.75Q120.62-34.75 118.77-34.2 116.92-33.65 115.69-32.2 114.47-30.75 114.47-28.05L114.47-28.05Q114.47-25.75 115.39-24.38 116.32-23 117.82-22.2 119.32-21.4 121.09-20.83 122.87-20.25 124.67-19.55 126.47-18.85 127.97-17.73 129.47-16.6 130.39-14.7 131.32-12.8 131.32-9.75L131.32-9.75Q131.32-6.2 130.04-3.98 128.77-1.75 126.54-0.73 124.32 0.3 121.42 0.3ZM192.58 0L192.58 0Q192.38 0 192.15-0.1 191.93-0.2 191.8-0.38 191.68-0.55 191.68-0.8L191.68-0.8Q191.68-1 191.73-1.1L191.73-1.1 202.58-36.15Q202.68-36.55 202.93-36.7 203.18-36.85 203.48-36.85L203.48-36.85Q203.78-36.85 204.05-36.68 204.33-36.5 204.43-36.15L204.43-36.15 215.18-1.1Q215.23-1 215.23-0.85L215.23-0.85Q215.23-0.65 215.08-0.45 214.93-0.25 214.7-0.13 214.48 0 214.23 0L214.23 0Q213.98 0 213.75-0.15 213.53-0.3 213.43-0.65L213.43-0.65 210.88-8.85 195.98-8.85 193.48-0.65Q193.38-0.3 193.13-0.15 192.88 0 192.58 0ZM203.48-33.05L196.53-10.65 210.33-10.65 203.48-33.05ZM284.94 0.3L284.94 0.3Q281.74 0.3 279.59-0.68 277.44-1.65 276.36-2.88 275.29-4.1 275.29-4.75L275.29-4.75Q275.29-5 275.44-5.25 275.59-5.5 275.79-5.65 275.99-5.8 276.14-5.8L276.14-5.8Q276.49-5.8 276.94-5.15 277.39-4.5 278.24-3.65 279.09-2.8 280.61-2.15 282.14-1.5 284.69-1.5L284.69-1.5Q287.44-1.5 289.29-2.43 291.14-3.35 292.09-5.15 293.04-6.95 293.04-9.6L293.04-9.6Q293.04-12.35 292.11-14 291.19-15.65 289.69-16.65 288.19-17.65 286.41-18.28 284.64-18.9 282.84-19.5 281.04-20.1 279.54-21.05 278.04-22 277.11-23.63 276.19-25.25 276.19-27.9L276.19-27.9Q276.19-30.6 277.14-32.3 278.09-34 279.59-34.93 281.09-35.85 282.79-36.2 284.49-36.55 286.04-36.55L286.04-36.55Q287.59-36.55 288.99-36.3 290.39-36.05 291.51-35.68 292.64-35.3 293.29-34.85 293.94-34.4 293.94-33.95L293.94-33.95Q293.94-33.75 293.81-33.5 293.69-33.25 293.49-33.05 293.29-32.85 293.04-32.85L293.04-32.85Q292.69-32.85 291.89-33.33 291.09-33.8 289.66-34.27 288.24-34.75 285.99-34.75L285.99-34.75Q284.14-34.75 282.29-34.2 280.44-33.65 279.21-32.2 277.99-30.75 277.99-28.05L277.99-28.05Q277.99-25.75 278.91-24.38 279.84-23 281.34-22.2 282.84-21.4 284.61-20.83 286.39-20.25 288.19-19.55 289.99-18.85 291.49-17.73 292.99-16.6 293.91-14.7 294.84-12.8 294.84-9.75L294.84-9.75Q294.84-6.2 293.56-3.98 292.29-1.75 290.06-0.73 287.84 0.3 284.94 0.3ZM334.2 0.3L334.2 0.3Q331.55 0.3 329.3-0.73 327.05-1.75 325.72-4 324.4-6.25 324.4-10L324.4-10 324.4-26.25Q324.4-30 325.77-32.25 327.15-34.5 329.4-35.52 331.65-36.55 334.35-36.55L334.35-36.55Q337.55-36.55 339.67-35.4 341.8-34.25 342.87-32.45 343.95-30.65 343.95-28.7L343.95-28.7Q343.95-27.85 343.72-27.58 343.5-27.3 343.05-27.3L343.05-27.3Q342.4-27.3 342.27-27.63 342.15-27.95 342.15-28.2L342.15-28.2Q342.1-29.1 341.77-30.23 341.45-31.35 340.62-32.38 339.8-33.4 338.27-34.08 336.75-34.75 334.3-34.75L334.3-34.75Q330.35-34.75 328.27-32.68 326.2-30.6 326.2-26.25L326.2-26.25 326.2-10Q326.2-5.6 328.3-3.55 330.4-1.5 334.5-1.5L334.5-1.5Q337-1.5 338.45-2.15 339.9-2.8 340.65-3.8 341.4-4.8 341.7-5.95 342-7.1 342.15-8.05L342.15-8.05Q342.2-8.4 342.35-8.68 342.5-8.95 343.05-8.95L343.05-8.95Q343.5-8.95 343.72-8.65 343.95-8.35 343.95-7.5L343.95-7.5Q343.95-5.6 342.85-3.8 341.75-2 339.57-0.85 337.4 0.3 334.2 0.3ZM371.7 0L371.7 0Q371.5 0 371.28-0.1 371.05-0.2 370.93-0.38 370.8-0.55 370.8-0.8L370.8-0.8Q370.8-1 370.85-1.1L370.85-1.1 381.7-36.15Q381.8-36.55 382.05-36.7 382.3-36.85 382.6-36.85L382.6-36.85Q382.9-36.85 383.18-36.68 383.45-36.5 383.55-36.15L383.55-36.15 394.3-1.1Q394.35-1 394.35-0.85L394.35-0.85Q394.35-0.65 394.2-0.45 394.05-0.25 393.83-0.13 393.6 0 393.35 0L393.35 0Q393.1 0 392.88-0.15 392.65-0.3 392.55-0.65L392.55-0.65 390-8.85 375.1-8.85 372.6-0.65Q372.5-0.3 372.25-0.15 372 0 371.7 0ZM382.6-33.05L375.65-10.65 389.45-10.65 382.6-33.05ZM424.01 0L424.01 0Q423.66 0 423.38-0.23 423.11-0.45 423.11-0.9L423.11-0.9 423.11-35.7Q423.11-36.2 423.38-36.38 423.66-36.55 424.01-36.55L424.01-36.55Q424.36-36.55 424.66-36.2 424.96-35.85 425.21-35.43 425.46-35 425.56-34.75L425.56-34.75 435.26-15.65 445.01-34.75Q445.16-35 445.38-35.43 445.61-35.85 445.93-36.2 446.26-36.55 446.56-36.55L446.56-36.55Q446.96-36.55 447.21-36.38 447.46-36.2 447.46-35.7L447.46-35.7 447.46-0.9Q447.46-0.45 447.18-0.23 446.91 0 446.56 0L446.56 0Q446.21 0 445.93-0.23 445.66-0.45 445.66-0.9L445.66-0.9 445.66-32.15 436.21-13.95Q435.96-13.45 435.73-13.23 435.51-13 435.26-13L435.26-13Q435.06-13 434.81-13.23 434.56-13.45 434.31-13.95L434.31-13.95 424.91-32.15 424.91-0.9Q424.91-0.45 424.63-0.23 424.36 0 424.01 0Z" opacity="1" transform="matrix(1,0,0,1,0,0)" fill="#f0f0f0" class="undefined-text-1" data-fill-palette-color="secondary" id="text-1"></path></svg></g></svg></g></svg></g></svg></g><g><svg viewBox="0 0 129.5232281242431 143.16006509475787" height="143.16006509475787" width="129.5232281242431"><g><svg xmlns="http://www.w3.org/2000/svg" xmlns:xlink="http://www.w3.org/1999/xlink" version="1.1" x="0" y="0" viewBox="9.286713600158691 5 81.42697143554688 90" enable-background="new 0 0 100 100" xml:space="preserve" height="143.16006509475787" width="129.5232281242431" class="icon-icon-0" data-fill-palette-color="accent" id="icon-0"><g fill="#f0f0f0" data-fill-palette-color="accent"><path fill="none" d="M72.534 90.829H27.466c-0.827 0-1.499 0.673-1.499 1.499 0 0.401 0.156 0.776 0.439 1.059 0.283 0.283 0.661 0.439 1.06 0.439h45.068c0.826 0 1.498-0.672 1.498-1.499C74.033 91.502 73.361 90.829 72.534 90.829z"></path><path fill="none" d="M71.514 82.768l-1.296 6.889h2.317c1.103 0 2.052 0.673 2.459 1.63 0.245-0.032 0.494-0.062 0.734-0.098 1.239-2.675-0.177-5.097-0.866-6.034C73.791 83.697 72.427 82.871 71.514 82.768z"></path><path fill="none" d="M29.783 89.657l-1.297-6.891c-0.915 0.094-2.291 0.919-3.372 2.388-0.687 0.937-2.104 3.358-0.867 6.032 0.247 0.037 0.505 0.068 0.759 0.101 0.407-0.957 1.356-1.63 2.46-1.63H29.783z"></path><path fill="none" d="M47.555 28.979c0.178-0.613-0.042-1.32-0.619-1.989-0.637-0.738-1.61-1.326-2.74-1.653-0.6-0.174-1.2-0.262-1.785-0.262-1.55 0-2.728 0.608-3 1.549-0.386 1.336 1.153 3.004 3.361 3.643 0.598 0.173 1.199 0.26 1.784 0.26C46.106 30.527 47.284 29.919 47.555 28.979z"></path><polygon fill="none" points="69.025,89.657 74.669,59.651 50.001,59.651 25.332,59.651 30.976,89.657  "></polygon><path fill="none" d="M80.765 59.312l0.531-0.247L80.76 59.3c-3.926-8.898-6.925-9.848-18.086-13.382l-1.962-0.623c-0.931 0.661-1.56 1.015-1.588 1.03l-0.565-1.028c0.117-0.064 11.616-6.536 9.108-16.746C64.572 15.947 55.629 6.173 50.001 6.173c-5.629 0-14.572 9.774-17.668 22.378-2.511 10.225 8.992 16.682 9.108 16.746l-0.565 1.028c-0.028-0.015-0.67-0.377-1.614-1.049l-1.863 0.593C26.19 49.421 23.178 50.376 19.242 59.3l-0.537-0.236 0.531 0.247-7.438 15.985c-1.665 3.87-1.775 7.104-0.328 9.612 1.69 2.929 5.619 4.999 11.437 6.056-0.676-2.101-0.239-4.46 1.262-6.503 1.179-1.605 2.759-2.672 4.1-2.844l-0.306-1.631-7.256-2.855 0.429-1.092 2.168 0.854-3.58-3.199 0.781-0.875 7.343 6.561-3.933-20.903h26.083 26.083l-3.932 20.903 7.343-6.561 0.781 0.875-3.58 3.199 2.166-0.854 0.43 1.092-7.254 2.855-0.308 1.635c1.337 0.181 2.906 1.244 4.078 2.839 1.502 2.044 1.938 4.405 1.26 6.508 5.832-1.055 9.77-3.129 11.462-6.062 1.447-2.508 1.337-5.741-0.329-9.611L80.765 59.312zM34.824 29.449h-1.173c0-8.616 7.334-15.625 16.349-15.625 9.015 0 16.349 7.009 16.349 15.625h-1.173c0-7.969-6.808-14.452-15.176-14.452C41.632 14.997 34.824 21.48 34.824 29.449zM38.283 26.299c0.422-1.456 2.042-2.397 4.127-2.397 0.696 0 1.406 0.105 2.111 0.308 1.346 0.39 2.52 1.104 3.304 2.015 0.844 0.98 1.149 2.074 0.857 3.079-0.421 1.456-2.04 2.396-4.127 2.396-0.695 0-1.405-0.102-2.11-0.306C39.53 30.55 37.702 28.313 38.283 26.299zM50.001 56.013l-5.998-5.547 0.796-0.861 5.202 4.811 5.201-4.811 0.796 0.861L50.001 56.013zM55.446 31.7c-2.087 0-3.707-0.94-4.127-2.396-0.291-1.006 0.014-2.099 0.858-3.079 0.784-0.91 1.957-1.625 3.304-2.015 0.704-0.203 1.415-0.308 2.111-0.308 2.086 0 3.705 0.941 4.126 2.397 0.291 1.005-0.013 2.099-0.857 3.079-0.784 0.91-1.957 1.625-3.303 2.015C56.852 31.597 56.142 31.7 55.446 31.7z"></path><path fill="none" d="M60.59 26.624c-0.272-0.941-1.449-1.549-2.999-1.549-0.586 0-1.187 0.088-1.785 0.262-1.131 0.326-2.105 0.914-2.742 1.653-0.577 0.67-0.797 1.377-0.62 1.989 0.271 0.94 1.449 1.548 3.001 1.548 0.585 0 1.185-0.087 1.784-0.26 1.13-0.327 2.103-0.915 2.74-1.654C60.548 27.943 60.767 27.237 60.59 26.624z"></path><path d="M50.001 14.997c8.368 0 15.176 6.483 15.176 14.452h1.173c0-8.616-7.334-15.625-16.349-15.625-9.015 0-16.349 7.009-16.349 15.625h1.173C34.824 21.48 41.632 14.997 50.001 14.997z" fill="#f0f0f0" data-fill-palette-color="accent"></path><path d="M48.682 29.304c0.291-1.006-0.013-2.099-0.857-3.079-0.784-0.91-1.957-1.625-3.304-2.015-0.705-0.203-1.415-0.308-2.111-0.308-2.085 0-3.705 0.941-4.127 2.397-0.581 2.014 1.247 4.251 4.162 5.095 0.705 0.204 1.415 0.306 2.11 0.306C46.642 31.7 48.261 30.76 48.682 29.304zM39.41 26.624c0.272-0.941 1.45-1.549 3-1.549 0.586 0 1.186 0.088 1.785 0.262 1.131 0.326 2.104 0.914 2.74 1.653 0.577 0.67 0.797 1.377 0.619 1.989-0.272 0.94-1.45 1.548-3 1.548-0.585 0-1.186-0.087-1.784-0.26C40.564 29.628 39.024 27.96 39.41 26.624z" fill="#f0f0f0" data-fill-palette-color="accent"></path><path d="M60.86 29.378c0.844-0.98 1.148-2.074 0.857-3.079-0.42-1.456-2.04-2.397-4.126-2.397-0.696 0-1.407 0.105-2.111 0.308-1.347 0.39-2.52 1.104-3.304 2.015-0.844 0.98-1.149 2.074-0.858 3.079 0.42 1.456 2.04 2.396 4.127 2.396 0.696 0 1.406-0.102 2.111-0.306C58.903 31.003 60.076 30.288 60.86 29.378zM57.231 30.267c-0.599 0.173-1.199 0.26-1.784 0.26-1.552 0-2.73-0.608-3.001-1.548-0.177-0.613 0.042-1.32 0.62-1.989 0.637-0.738 1.61-1.326 2.742-1.653 0.598-0.174 1.199-0.262 1.785-0.262 1.55 0 2.727 0.608 2.999 1.549 0.177 0.613-0.043 1.319-0.619 1.989C59.334 29.352 58.361 29.94 57.231 30.267z" fill="#f0f0f0" data-fill-palette-color="accent"></path><path d="M89.279 74.833l-0.539 0.233 0.531-0.247-7.439-15.991c-4.14-9.383-7.54-10.46-18.804-14.027l-1.167-0.371c3.484-2.771 8.838-8.451 6.944-16.158C65.535 14.952 56.18 5 50.001 5c-6.18 0-15.535 9.952-18.806 23.271-1.889 7.69 3.436 13.361 6.921 16.14l-1.071 0.34c-11.311 3.585-14.726 4.667-18.876 14.076l-7.44 15.991 0.531 0.247-0.539-0.233c-1.819 4.229-1.908 7.816-0.266 10.662 2.1 3.639 6.931 5.971 14.352 6.949 0.028 0.669 0.293 1.296 0.771 1.774C26.083 94.722 26.754 95 27.466 95h45.068c1.434 0 2.598-1.138 2.66-2.557 7.42-0.976 12.251-3.31 14.351-6.949C91.188 82.648 91.098 79.061 89.279 74.833zM25.007 91.287c-0.253-0.033-0.511-0.064-0.759-0.101-1.237-2.674 0.18-5.095 0.867-6.032 1.08-1.469 2.457-2.294 3.372-2.388l1.297 6.891h-2.317C26.362 89.657 25.413 90.33 25.007 91.287zM25.332 59.651h24.669 24.668l-5.644 30.006H30.976L25.332 59.651zM72.534 93.827H27.466c-0.4 0-0.777-0.157-1.06-0.439-0.283-0.283-0.439-0.658-0.439-1.059 0-0.827 0.672-1.499 1.499-1.499h45.068c0.826 0 1.498 0.673 1.498 1.499C74.033 93.155 73.361 93.827 72.534 93.827zM75.728 91.189c-0.24 0.036-0.489 0.065-0.734 0.098-0.407-0.957-1.356-1.63-2.459-1.63h-2.317l1.296-6.889c0.913 0.103 2.278 0.929 3.348 2.387C75.551 86.092 76.966 88.513 75.728 91.189zM88.53 84.907c-1.692 2.933-5.631 5.007-11.462 6.062 0.678-2.103 0.242-4.464-1.26-6.508-1.172-1.596-2.742-2.658-4.078-2.839l0.308-1.635 7.254-2.855-0.43-1.092-2.166 0.854 3.58-3.199-0.781-0.875-7.343 6.561 3.932-20.903H50.001 23.917l3.933 20.903-7.343-6.561-0.781 0.875 3.58 3.199-2.168-0.854-0.429 1.092 7.256 2.855 0.306 1.631c-1.342 0.172-2.921 1.239-4.1 2.844-1.501 2.043-1.938 4.402-1.262 6.503-5.818-1.057-9.748-3.127-11.437-6.056-1.448-2.508-1.337-5.742 0.328-9.612l7.438-15.985-0.531-0.247 0.537 0.236c3.936-8.924 6.948-9.879 18.157-13.431l1.863-0.593c0.944 0.672 1.586 1.034 1.614 1.049l0.565-1.028c-0.117-0.064-11.619-6.521-9.108-16.746C35.429 15.947 44.372 6.173 50.001 6.173c5.629 0 14.571 9.774 17.667 22.378 2.508 10.211-8.991 16.682-9.108 16.746l0.565 1.028c0.028-0.015 0.657-0.369 1.588-1.03l1.962 0.623c11.16 3.534 14.16 4.484 18.086 13.382l0.536-0.236-0.531 0.247 7.437 15.985C89.867 79.166 89.977 82.4 88.53 84.907z" fill="#f0f0f0" data-fill-palette-color="accent"></path><polygon points="50.001,54.415 44.799,49.605 44.003,50.466 50.001,56.013 55.998,50.466 55.202,49.605  " fill="#f0f0f0" data-fill-palette-color="accent"></polygon></g></svg></g></svg></g></svg></g></svg></g></svg></g></svg></g></svg><rect width="395.52" height="247.2" fill="none" stroke="none" visibility="hidden"></rect></g></svg></g></svg>
